<svg width="44" height="51" viewBox="0 0 44 51" fill="none" xmlns="http://www.w3.org/2000/svg">
  <path d="M21.5777 50.2221L21.8175 50.3613L22.0566 50.2211L42.4928 38.2446L42.7277 38.1069V37.8345V14.0716V13.7997L42.4934 13.6619L21.9622 1.59031L21.7224 1.44933L21.4821 1.58934L0.760765 13.6609L0.522551 13.7997L0.524756 14.0754L0.71486 37.8383L0.717028 38.1094L0.951459 38.2455L21.5777 50.2221Z" fill="white" stroke="white" stroke-width="0.950518"/>
  <path d="M21.8152 49.2608L1.66318 37.5597L1.47745 14.3435L21.7202 2.55067L41.7772 14.3435V37.5622L21.8152 49.2608Z" fill="white" stroke="#6F5BD7" stroke-width="0.950518"/>
  <mask id="path-4-inside-1" fill="white">
    <path d="M9.55469 18.1588L4.8021 14.7369L18.9648 6.56247L9.55469 18.1588Z"/>
    <path d="M8.60417 19.3945L3.47137 15.5924V35.6483L8.60417 19.3945Z"/>
    <path d="M20.3906 38.4048L9.83985 20.2499L4.51694 35.9335L20.3906 38.4048Z"/>
    <path d="M21.056 39.4504L4.51694 37.0741L21.056 46.5793V39.4504Z"/>
    <path d="M22.3867 46.5793V39.4504L39.0208 37.0741L22.3867 46.5793Z"/>
    <path d="M39.0208 35.9335L33.6028 20.2499L22.957 38.4048L39.0208 35.9335Z"/>
    <path d="M32.3671 19.7747H10.8854L21.7213 38.4048L32.3671 19.7747Z"/>
    <path d="M39.8762 15.5924L34.7434 19.3945L39.8762 35.6483V15.5924Z"/>
    <path d="M38.9257 14.7369L33.983 18.1588L24.763 6.56247L38.9257 14.7369Z"/>
    <path d="M32.3671 18.539H10.8854L21.6263 4.66144L32.3671 18.539Z"/>
  </mask>
  <path d="M4.8021 14.7369L4.32695 13.9137L3.05312 14.6489L4.24671 15.5083L4.8021 14.7369ZM9.55469 18.1588L8.9993 18.9302L9.72742 19.4544L10.2928 18.7577L9.55469 18.1588ZM18.9648 6.56247L19.7029 7.16141L18.4897 5.73924L18.9648 6.56247ZM3.47137 15.5924L4.03715 14.8286L2.52086 13.7054V15.5924H3.47137ZM8.60417 19.3945L9.51057 19.6807L9.71472 19.0342L9.16995 18.6307L8.60417 19.3945ZM3.47137 35.6483H2.52086L4.37777 35.9346L3.47137 35.6483ZM9.83985 20.2499L10.6617 19.7723L9.61148 17.9653L8.93975 19.9444L9.83985 20.2499ZM20.3906 38.4048L20.2444 39.344L22.214 39.6507L21.2124 37.9272L20.3906 38.4048ZM4.51694 35.9335L3.61685 35.628L3.25345 36.6987L4.37072 36.8727L4.51694 35.9335ZM4.51694 37.0741L4.65213 36.1332L4.04332 37.8982L4.51694 37.0741ZM21.056 39.4504H22.0065V38.6267L21.1911 38.5095L21.056 39.4504ZM21.056 46.5793L20.5823 47.4034L22.0065 48.2219V46.5793H21.056ZM22.3867 39.4504L22.2523 38.5094L21.4362 38.626V39.4504H22.3867ZM22.3867 46.5793H21.4362V48.2172L22.8583 47.4046L22.3867 46.5793ZM39.0208 37.0741L39.4923 37.8994L38.8863 36.1331L39.0208 37.0741ZM33.6028 20.2499L34.5012 19.9396L33.8271 17.9883L32.7829 19.7691L33.6028 20.2499ZM39.0208 35.9335L39.1653 36.8729L40.2911 36.6997L39.9192 35.6231L39.0208 35.9335ZM22.957 38.4048L22.137 37.924L21.126 39.6482L23.1015 39.3443L22.957 38.4048ZM10.8854 19.7747V18.8242H9.23296L10.0638 20.2526L10.8854 19.7747ZM32.3671 19.7747L33.1924 20.2463L34.005 18.8242H32.3671V19.7747ZM21.7213 38.4048L20.8997 38.8827L21.7286 40.3079L22.5466 38.8764L21.7213 38.4048ZM34.7434 19.3945L34.1776 18.6307L33.6329 19.0342L33.837 19.6807L34.7434 19.3945ZM39.8762 15.5924H40.8267V13.7054L39.3104 14.8286L39.8762 15.5924ZM39.8762 35.6483L38.9698 35.9346L40.8267 35.6483H39.8762ZM33.983 18.1588L33.239 18.7503L33.7926 19.4467L34.524 18.9403L33.983 18.1588ZM38.9257 14.7369L39.4667 15.5184L40.7009 14.664L39.4009 13.9137L38.9257 14.7369ZM24.763 6.56247L25.2381 5.73924L24.019 7.15402L24.763 6.56247ZM10.8854 18.539L10.1337 17.9572L8.94778 19.4895H10.8854V18.539ZM32.3671 18.539V19.4895H34.3048L33.1188 17.9572L32.3671 18.539ZM21.6263 4.66144L22.3779 4.07966L21.6263 3.10847L20.8746 4.07966L21.6263 4.66144ZM4.24671 15.5083L8.9993 18.9302L10.1101 17.3874L5.35749 13.9656L4.24671 15.5083ZM10.2928 18.7577L19.7029 7.16141L18.2267 5.96354L8.81661 17.5599L10.2928 18.7577ZM18.4897 5.73924L4.32695 13.9137L5.27725 15.5602L19.44 7.38571L18.4897 5.73924ZM2.9056 16.3562L8.0384 20.1583L9.16995 18.6307L4.03715 14.8286L2.9056 16.3562ZM7.69777 19.1082L2.56498 35.3621L4.37777 35.9346L9.51057 19.6807L7.69777 19.1082ZM4.42189 35.6483V15.5924H2.52086V35.6483H4.42189ZM9.01803 20.7275L19.5688 38.8824L21.2124 37.9272L10.6617 19.7723L9.01803 20.7275ZM20.5368 37.4656L4.66317 34.9943L4.37072 36.8727L20.2444 39.344L20.5368 37.4656ZM5.41704 36.239L10.7399 20.5554L8.93975 19.9444L3.61685 35.628L5.41704 36.239ZM4.38176 38.015L20.9208 40.3913L21.1911 38.5095L4.65213 36.1332L4.38176 38.015ZM20.1054 39.4504V46.5793H22.0065V39.4504H20.1054ZM21.5296 45.7552L4.99057 36.25L4.04332 37.8982L20.5823 47.4034L21.5296 45.7552ZM21.4362 39.4504V46.5793H23.3372V39.4504H21.4362ZM22.8583 47.4046L39.4923 37.8994L38.5492 36.2488L21.9151 45.754L22.8583 47.4046ZM38.8863 36.1331L22.2523 38.5094L22.5211 40.3914L39.1552 38.0151L38.8863 36.1331ZM32.7044 20.5603L38.1223 36.2438L39.9192 35.6231L34.5012 19.9396L32.7044 20.5603ZM38.8762 34.994L22.8125 37.4654L23.1015 39.3443L39.1653 36.8729L38.8762 34.994ZM23.7769 38.8856L34.4227 20.7307L32.7829 19.7691L22.137 37.924L23.7769 38.8856ZM10.8854 20.7252H32.3671V18.8242H10.8854V20.7252ZM31.5418 19.3031L20.896 37.9332L22.5466 38.8764L33.1924 20.2463L31.5418 19.3031ZM22.543 37.9269L11.7071 19.2968L10.0638 20.2526L20.8997 38.8827L22.543 37.9269ZM35.3092 20.1583L40.442 16.3562L39.3104 14.8286L34.1776 18.6307L35.3092 20.1583ZM38.9257 15.5924V35.6483H40.8267V15.5924H38.9257ZM40.7826 35.3621L35.6498 19.1082L33.837 19.6807L38.9698 35.9346L40.7826 35.3621ZM34.524 18.9403L39.4667 15.5184L38.3847 13.9554L33.442 17.3773L34.524 18.9403ZM39.4009 13.9137L25.2381 5.73924L24.2878 7.38571L38.4505 15.5602L39.4009 13.9137ZM24.019 7.15402L33.239 18.7503L34.727 17.5672L25.507 5.97092L24.019 7.15402ZM10.8854 19.4895H32.3671V17.5885H10.8854V19.4895ZM33.1188 17.9572L22.3779 4.07966L20.8746 5.24322L31.6154 19.1208L33.1188 17.9572ZM20.8746 4.07966L10.1337 17.9572L11.6371 19.1208L22.3779 5.24322L20.8746 4.07966Z" fill="#6F5BD7" mask="url(#path-4-inside-1)"/>
  <path d="M10.5224 26.8113L15.108 34.7389L8.19076 33.6508L10.5224 26.8113ZM33.0047 26.8139L35.2575 33.6499L28.3438 34.7374L33.0047 26.8139ZM21.6291 32.5181L15.7966 22.4361H27.545L21.6291 32.5181ZM26.4785 15.5924H16.9456L21.6326 9.07826L26.4785 15.5924Z" stroke="#6F5BD7" stroke-width="0.950518"/>
</svg>
