<svg width="217" height="252" viewBox="0 0 217 252" fill="none" xmlns="http://www.w3.org/2000/svg">
<mask id="path-2-inside-1" fill="white">
<path d="M45 85L20 67L94.5 24L45 85Z"/>
<path d="M40 91.5L13 71.5V177L40 91.5Z"/>
<path d="M102 191.5L46.5 96L18.5 178.5L102 191.5Z"/>
<path d="M105.5 197L18.5 184.5L105.5 234.5V197Z"/>
<path d="M112.5 234.5V197L200 184.5L112.5 234.5Z"/>
<path d="M200 178.5L171.5 96L115.5 191.5L200 178.5Z"/>
<path d="M165 93.5H52L109 191.5L165 93.5Z"/>
<path d="M204.5 71.5L177.5 91.5L204.5 177V71.5Z"/>
<path d="M199.5 67L173.5 85L125 24L199.5 67Z"/>
<path d="M165 87H52L108.5 14L165 87Z"/>
</mask>
<path d="M20 67L17.5005 62.6696L10.7999 66.5371L17.0785 71.0577L20 67ZM45 85L42.0785 89.0577L45.9086 91.8154L48.8825 88.1506L45 85ZM94.5 24L98.3825 27.1506L92.0005 19.6696L94.5 24ZM13 71.5L15.9761 67.4822L8 61.574V71.5H13ZM40 91.5L44.7679 93.0057L45.8418 89.6049L42.9761 87.4822L40 91.5ZM13 177H8L17.7679 178.506L13 177ZM46.5 96L50.823 93.4877L45.2987 83.982L41.7653 94.3931L46.5 96ZM102 191.5L101.231 196.44L111.592 198.054L106.323 188.988L102 191.5ZM18.5 178.5L13.7653 176.893L11.8537 182.525L17.7308 183.44L18.5 178.5ZM18.5 184.5L19.2111 179.551L16.0086 188.835L18.5 184.5ZM105.5 197H110.5V192.667L106.211 192.051L105.5 197ZM105.5 234.5L103.009 238.835L110.5 243.14V234.5H105.5ZM112.5 197L111.793 192.05L107.5 192.664V197H112.5ZM112.5 234.5H107.5V243.116L114.981 238.841L112.5 234.5ZM200 184.5L202.481 188.841L199.293 179.55L200 184.5ZM171.5 96L176.226 94.3674L172.68 84.103L167.187 93.4708L171.5 96ZM200 178.5L200.76 183.442L206.682 182.531L204.726 176.867L200 178.5ZM115.5 191.5L111.187 188.971L105.868 198.041L116.26 196.442L115.5 191.5ZM52 93.5V88.5H43.3076L47.6779 96.0139L52 93.5ZM165 93.5L169.341 95.9807L173.616 88.5H165V93.5ZM109 191.5L104.678 194.014L109.038 201.511L113.341 193.981L109 191.5ZM177.5 91.5L174.524 87.4822L171.658 89.6049L172.732 93.0057L177.5 91.5ZM204.5 71.5H209.5V61.574L201.524 67.4822L204.5 71.5ZM204.5 177L199.732 178.506L209.5 177H204.5ZM173.5 85L169.586 88.1117L172.499 91.7746L176.346 89.111L173.5 85ZM199.5 67L202.346 71.111L208.838 66.6166L201.999 62.6696L199.5 67ZM125 24L127.499 19.6696L121.086 27.1117L125 24ZM52 87L48.046 83.9397L41.8075 92H52V87ZM165 87V92H175.193L168.954 83.9397L165 87ZM108.5 14L112.454 10.9397L108.5 5.83092L104.546 10.9397L108.5 14ZM17.0785 71.0577L42.0785 89.0577L47.9215 80.9423L22.9215 62.9423L17.0785 71.0577ZM48.8825 88.1506L98.3825 27.1506L90.6175 20.8494L41.1175 81.8494L48.8825 88.1506ZM92.0005 19.6696L17.5005 62.6696L22.4995 71.3304L96.9995 28.3304L92.0005 19.6696ZM10.0239 75.5178L37.0239 95.5178L42.9761 87.4822L15.9761 67.4822L10.0239 75.5178ZM35.2321 89.9943L8.23209 175.494L17.7679 178.506L44.7679 93.0057L35.2321 89.9943ZM18 177V71.5H8V177H18ZM42.177 98.5123L97.677 194.012L106.323 188.988L50.823 93.4877L42.177 98.5123ZM102.769 186.56L19.2692 173.56L17.7308 183.44L101.231 196.44L102.769 186.56ZM23.2347 180.107L51.2347 97.6069L41.7653 94.3931L13.7653 176.893L23.2347 180.107ZM17.7889 189.449L104.789 201.949L106.211 192.051L19.2111 179.551L17.7889 189.449ZM100.5 197V234.5H110.5V197H100.5ZM107.991 230.165L20.9914 180.165L16.0086 188.835L103.009 238.835L107.991 230.165ZM107.5 197V234.5H117.5V197H107.5ZM114.981 238.841L202.481 188.841L197.519 180.159L110.019 230.159L114.981 238.841ZM199.293 179.55L111.793 192.05L113.207 201.95L200.707 189.45L199.293 179.55ZM166.774 97.6326L195.274 180.133L204.726 176.867L176.226 94.3674L166.774 97.6326ZM199.24 173.558L114.74 186.558L116.26 196.442L200.76 183.442L199.24 173.558ZM119.813 194.029L175.813 98.5292L167.187 93.4708L111.187 188.971L119.813 194.029ZM52 98.5H165V88.5H52V98.5ZM160.659 91.0193L104.659 189.019L113.341 193.981L169.341 95.9807L160.659 91.0193ZM113.322 188.986L56.3221 90.9861L47.6779 96.0139L104.678 194.014L113.322 188.986ZM180.476 95.5178L207.476 75.5178L201.524 67.4822L174.524 87.4822L180.476 95.5178ZM199.5 71.5V177H209.5V71.5H199.5ZM209.268 175.494L182.268 89.9943L172.732 93.0057L199.732 178.506L209.268 175.494ZM176.346 89.111L202.346 71.111L196.654 62.889L170.654 80.889L176.346 89.111ZM201.999 62.6696L127.499 19.6696L122.501 28.3304L197.001 71.3304L201.999 62.6696ZM121.086 27.1117L169.586 88.1117L177.414 81.8883L128.914 20.8883L121.086 27.1117ZM52 92H165V82H52V92ZM168.954 83.9397L112.454 10.9397L104.546 17.0603L161.046 90.0603L168.954 83.9397ZM104.546 10.9397L48.046 83.9397L55.954 90.0603L112.454 17.0603L104.546 10.9397Z" fill="#6F5BD7" mask="url(#path-2-inside-1)"/>
<path d="M214.5 187.067L109.494 248.606L3.48851 187.054L2.51152 64.9302L108.994 2.89669L214.5 64.9302V187.067Z" stroke="#6F5BD7" stroke-width="5"/>
<path d="M74.2124 172.216L37.8257 166.492L50.0909 130.515L74.2124 172.216ZM180.205 166.488L143.837 172.208L168.354 130.528L180.205 166.488ZM139.634 107.5L108.515 160.534L77.8345 107.5H139.634ZM134.024 71.5H83.8787L108.534 37.2338L134.024 71.5Z" stroke="#6F5BD7" stroke-width="5"/>
</svg>
